<?xml version="1.0" standalone="no"?>
<!DOCTYPE svg PUBLIC "-//W3C//DTD SVG 20010904//EN"
 "http://www.w3.org/TR/2001/REC-SVG-20010904/DTD/svg10.dtd">
<svg version="1.0" xmlns="http://www.w3.org/2000/svg"
 width="700.000000pt" height="700.000000pt" viewBox="0 0 700.000000 700.000000"
 preserveAspectRatio="xMidYMid meet">
<metadata>
Created by potrace 1.11, written by Peter Selinger 2001-2013
</metadata>
<g transform="translate(0.000000,700.000000) scale(0.100000,-0.100000)"
fill="#000000" stroke="none">
<path d="M3338 6705 c-2 -1 -46 -5 -98 -9 -52 -3 -106 -8 -120 -10 -14 -3 -47
-7 -74 -11 -41 -5 -128 -20 -226 -39 -153 -30 -416 -114 -576 -184 -83 -37
-274 -130 -319 -155 -251 -144 -519 -351 -722 -558 -103 -105 -253 -284 -313
-374 -8 -12 -38 -56 -65 -96 -74 -108 -125 -198 -201 -349 -111 -222 -218
-525 -259 -735 -17 -88 -36 -195 -41 -230 -2 -22 -7 -51 -9 -65 -25 -162 -26
-619 -1 -770 3 -14 7 -47 11 -75 28 -238 132 -603 242 -845 25 -56 108 -223
123 -250 110 -189 232 -365 355 -516 54 -65 317 -329 385 -386 263 -218 571
-404 865 -521 92 -36 126 -49 135 -52 3 0 30 -9 60 -20 30 -10 60 -20 65 -21
6 -2 35 -10 65 -19 30 -9 62 -17 70 -19 8 -2 33 -9 55 -14 22 -6 51 -13 65
-16 14 -3 50 -10 80 -16 64 -12 86 -16 160 -26 30 -4 66 -8 80 -10 169 -24
619 -24 746 0 10 2 44 7 74 11 488 60 1040 285 1445 587 158 118 203 157 366
318 397 393 672 857 825 1395 26 90 30 105 39 148 33 159 39 188 50 272 3 22
7 49 10 60 25 123 25 694 0 785 -3 8 -7 39 -10 69 -3 29 -7 56 -9 60 -2 3 -7
29 -10 56 -18 138 -106 440 -181 625 -45 111 -141 311 -190 395 -33 57 -175
277 -184 285 -3 3 -26 32 -51 65 -81 108 -143 178 -280 315 -150 150 -188 185
-273 250 -333 257 -649 426 -1012 543 -107 34 -325 90 -395 101 -19 3 -46 8
-60 10 -14 2 -46 7 -71 10 -25 4 -57 9 -70 11 -82 14 -539 31 -551 20z"/>
</g>
</svg>
